<svg width="31" height="31" viewBox="0 0 31 31" fill="none" xmlns="http://www.w3.org/2000/svg">
<path fill-rule="evenodd" clip-rule="evenodd" d="M7.75022 15.5C7.75022 15.7569 7.85228 16.0033 8.03396 16.185C8.21564 16.3667 8.46204 16.4688 8.71897 16.4688L19.9429 16.4688L15.7831 20.6266C15.693 20.7167 15.6216 20.8236 15.5728 20.9413C15.5241 21.059 15.499 21.1851 15.499 21.3125C15.499 21.4399 15.5241 21.566 15.5728 21.6837C15.6216 21.8014 15.693 21.9083 15.7831 21.9984C15.8732 22.0884 15.9801 22.1599 16.0978 22.2086C16.2155 22.2574 16.3416 22.2825 16.469 22.2825C16.5963 22.2825 16.7225 22.2574 16.8402 22.2086C16.9578 22.1599 17.0648 22.0884 17.1548 21.9984L22.9673 16.1859C23.0576 16.0959 23.1291 15.989 23.178 15.8713C23.2268 15.7536 23.252 15.6274 23.252 15.5C23.252 15.3726 23.2268 15.2464 23.178 15.1287C23.1291 15.011 23.0576 14.9041 22.9673 14.8141L17.1548 9.00163C16.9729 8.81972 16.7262 8.71753 16.469 8.71753C16.2117 8.71753 15.965 8.81972 15.7831 9.00163C15.6012 9.18353 15.499 9.43025 15.499 9.6875C15.499 9.94476 15.6012 10.1915 15.7831 10.3734L19.9429 14.5313L8.71897 14.5313C8.46204 14.5313 8.21564 14.6333 8.03396 14.815C7.85228 14.9967 7.75022 15.2431 7.75022 15.5Z" fill="white"/>
</svg>
